<svg xmlns="http://www.w3.org/2000/svg" xmlns:xlink="http://www.w3.org/1999/xlink" contentStyleType="text/css" data-diagram-type="SEQUENCE" height="510px" preserveAspectRatio="none" style="width:432px;height:510px;background:#FFFFFF;" version="1.1" viewBox="0 0 432 510" width="432px" zoomAndPan="magnify"><title>Publish Ad</title><defs/><g><text fill="#000000" font-family="sans-serif" font-size="14" font-weight="bold" lengthAdjust="spacing" textLength="83.877" x="173.4023" y="27.9951">Publish Ad</text><g><title>Advertiser</title><rect fill="#000000" fill-opacity="0.00000" height="311.3281" width="8" x="40.0801" y="118.5938"/><line style="stroke:#181818;stroke-width:0.5;stroke-dasharray:5,5;" x1="44" x2="44" y1="118.5938" y2="429.9219"/></g><g><title>__.System__</title><rect fill="#000000" fill-opacity="0.00000" height="311.3281" width="8" x="387.2202" y="118.5938"/><line style="stroke:#181818;stroke-width:0.5;stroke-dasharray:5,5;" x1="390.7588" x2="390.7588" y1="118.5938" y2="429.9219"/></g><g class="participant participant-head" data-participant="Advertiser"><text fill="#000000" font-family="sans-serif" font-size="14" lengthAdjust="spacing" textLength="72.1602" x="5" y="115.292">Advertiser</text><ellipse cx="44.0801" cy="50.7969" fill="#E2E2F0" rx="8" ry="8" style="stroke:#181818;stroke-width:0.5;"/><path d="M44.0801,58.7969 L44.0801,85.7969 M31.0801,66.7969 L57.0801,66.7969 M44.0801,85.7969 L31.0801,100.7969 M44.0801,85.7969 L57.0801,100.7969" fill="none" style="stroke:#181818;stroke-width:0.5;"/></g><g class="participant participant-tail" data-participant="Advertiser"><text fill="#000000" font-family="sans-serif" font-size="14" lengthAdjust="spacing" textLength="72.1602" x="5" y="441.917">Advertiser</text><ellipse cx="44.0801" cy="453.7188" fill="#E2E2F0" rx="8" ry="8" style="stroke:#181818;stroke-width:0.5;"/><path d="M44.0801,461.7188 L44.0801,488.7188 M31.0801,469.7188 L57.0801,469.7188 M44.0801,488.7188 L31.0801,503.7188 M44.0801,488.7188 L57.0801,503.7188" fill="none" style="stroke:#181818;stroke-width:0.5;"/></g><g class="participant participant-head" data-participant="System"><rect fill="#E2E2F0" height="30.2969" rx="2.5" ry="2.5" style="stroke:#181818;stroke-width:0.5;" width="70.9229" x="355.7588" y="87.2969"/><text fill="#000000" font-family="sans-serif" font-size="14" lengthAdjust="spacing" text-decoration="underline" textLength="56.9229" x="362.7588" y="107.292">:System</text></g><g class="participant participant-tail" data-participant="System"><rect fill="#E2E2F0" height="30.2969" rx="2.5" ry="2.5" style="stroke:#181818;stroke-width:0.5;" width="70.9229" x="355.7588" y="428.9219"/><text fill="#000000" font-family="sans-serif" font-size="14" lengthAdjust="spacing" text-decoration="underline" textLength="56.9229" x="362.7588" y="448.917">:System</text></g><g class="message" data-participant-1="Advertiser" data-participant-2="System"><polygon fill="#181818" points="379.2202,145.7266,389.2202,149.7266,379.2202,153.7266,383.2202,149.7266" style="stroke:#181818;stroke-width:1;"/><line style="stroke:#181818;stroke-width:1;" x1="44.0801" x2="385.2202" y1="149.7266" y2="149.7266"/><text fill="#000000" font-family="sans-serif" font-size="13" lengthAdjust="spacing" textLength="70.5352" x="51.0801" y="144.6606">getMedia()</text></g><g class="message" data-participant-1="System" data-participant-2="Advertiser"><polygon fill="#181818" points="55.0801,174.8594,45.0801,178.8594,55.0801,182.8594,51.0801,178.8594" style="stroke:#181818;stroke-width:1;"/><line style="stroke:#181818;stroke-width:1;stroke-dasharray:2,2;" x1="49.0801" x2="390.2202" y1="178.8594" y2="178.8594"/><text fill="#000000" font-family="sans-serif" font-size="13" lengthAdjust="spacing" textLength="84.1128" x="61.0801" y="173.7935">MediaDetails</text></g><g class="message" data-participant-1="Advertiser" data-participant-2="System"><polygon fill="#181818" points="379.2202,203.9922,389.2202,207.9922,379.2202,211.9922,383.2202,207.9922" style="stroke:#181818;stroke-width:1;"/><line style="stroke:#181818;stroke-width:1;" x1="44.0801" x2="385.2202" y1="207.9922" y2="207.9922"/><text fill="#000000" font-family="sans-serif" font-size="13" lengthAdjust="spacing" textLength="98.3379" x="51.0801" y="202.9263">reserveMedia()</text></g><g class="message" data-participant-1="System" data-participant-2="Advertiser"><polygon fill="#181818" points="55.0801,233.125,45.0801,237.125,55.0801,241.125,51.0801,237.125" style="stroke:#181818;stroke-width:1;"/><line style="stroke:#181818;stroke-width:1;stroke-dasharray:2,2;" x1="49.0801" x2="390.2202" y1="237.125" y2="237.125"/><text fill="#000000" font-family="sans-serif" font-size="13" lengthAdjust="spacing" textLength="116.708" x="61.0801" y="232.0591">ReservationModal</text></g><g class="message" data-participant-1="Advertiser" data-participant-2="System"><polygon fill="#181818" points="379.2202,262.2578,389.2202,266.2578,379.2202,270.2578,383.2202,266.2578" style="stroke:#181818;stroke-width:1;"/><line style="stroke:#181818;stroke-width:1;" x1="44.0801" x2="385.2202" y1="266.2578" y2="266.2578"/><text fill="#000000" font-family="sans-serif" font-size="13" lengthAdjust="spacing" textLength="323.1401" x="51.0801" y="261.1919">submitAd(mediaId, adImage, startDate, endDate)</text></g><g class="message" data-participant-1="System" data-participant-2="Advertiser"><polygon fill="#181818" points="55.0801,291.3906,45.0801,295.3906,55.0801,299.3906,51.0801,295.3906" style="stroke:#181818;stroke-width:1;"/><line style="stroke:#181818;stroke-width:1;stroke-dasharray:2,2;" x1="49.0801" x2="390.2202" y1="295.3906" y2="295.3906"/><text fill="#000000" font-family="sans-serif" font-size="13" lengthAdjust="spacing" textLength="125.7788" x="61.0801" y="290.3247">AdPreviewOnMedia</text></g><g class="message" data-participant-1="Advertiser" data-participant-2="System"><polygon fill="#181818" points="379.2202,320.5234,389.2202,324.5234,379.2202,328.5234,383.2202,324.5234" style="stroke:#181818;stroke-width:1;"/><line style="stroke:#181818;stroke-width:1;" x1="44.0801" x2="385.2202" y1="324.5234" y2="324.5234"/><text fill="#000000" font-family="sans-serif" font-size="13" lengthAdjust="spacing" textLength="99.7407" x="51.0801" y="319.4575">goToPayment()</text></g><g class="message" data-participant-1="System" data-participant-2="Advertiser"><polygon fill="#181818" points="55.0801,349.6563,45.0801,353.6563,55.0801,357.6563,51.0801,353.6563" style="stroke:#181818;stroke-width:1;"/><line style="stroke:#181818;stroke-width:1;stroke-dasharray:2,2;" x1="49.0801" x2="390.2202" y1="353.6563" y2="353.6563"/><text fill="#000000" font-family="sans-serif" font-size="13" lengthAdjust="spacing" textLength="102.4766" x="61.0801" y="348.5903">PaymentScreen</text></g><g class="message" data-participant-1="Advertiser" data-participant-2="System"><polygon fill="#181818" points="379.2202,378.7891,389.2202,382.7891,379.2202,386.7891,383.2202,382.7891" style="stroke:#181818;stroke-width:1;"/><line style="stroke:#181818;stroke-width:1;" x1="44.0801" x2="385.2202" y1="382.7891" y2="382.7891"/><text fill="#000000" font-family="sans-serif" font-size="13" lengthAdjust="spacing" textLength="240.3667" x="51.0801" y="377.7231">confirmReservation(paymentDetails)</text></g><g class="message" data-participant-1="System" data-participant-2="Advertiser"><polygon fill="#181818" points="55.0801,407.9219,45.0801,411.9219,55.0801,415.9219,51.0801,411.9219" style="stroke:#181818;stroke-width:1;"/><line style="stroke:#181818;stroke-width:1;stroke-dasharray:2,2;" x1="49.0801" x2="390.2202" y1="411.9219" y2="411.9219"/><text fill="#000000" font-family="sans-serif" font-size="13" lengthAdjust="spacing" textLength="217.2803" x="61.0801" y="406.856">closeModalAndShowConfirmation</text></g><!--SRC=[XP0zRiCm38LtdOBmv0391JmK498bGr2Zxcum4fi8q8yXCGvo-ogo0NSHkf6FJv_8nuOjGV-uMfFk8BKGg3X4QAIUAR9951l015ih9io5CXDwXcOSk-6LcDmu5j_I2B7vuV2ngXtSY2-a3ROxiKXmoDFDsq4PduZHs5IZHCh2JF-GleeBsGH_2HfjZPOULsTOwjQzUMUz1zHdXpVQG-9ywWavb-JrkwZ-9dKVQJRq_FHbhse2uJlq-7BakRxwQXXK9F8raWh-nqJtvynsMjwjyLNnoeP49HFfzN0Fp-E2Af1V]--></g></svg>