<svg xmlns="http://www.w3.org/2000/svg" xmlns:xlink="http://www.w3.org/1999/xlink" contentStyleType="text/css" data-diagram-type="DESCRIPTION" height="222px" preserveAspectRatio="none" style="width:1324px;height:222px;background:#FFFFFF;" version="1.1" viewBox="0 0 1324 222" width="1324px" zoomAndPan="magnify"><defs/><g><!--cluster Publish Ad--><g class="cluster" data-entity="Publish Ad" data-source-line="15" data-uid="ent0004" id="cluster_Publish Ad"><rect fill="none" height="167" rx="2.5" ry="2.5" style="stroke:#181818;stroke-width:1;" width="1073.44" x="115.16" y="7"/><text fill="#000000" font-family="sans-serif" font-size="14" font-weight="bold" lengthAdjust="spacing" textLength="83.877" x="609.9415" y="21.9951">Publish Ad</text></g><!--entity Submit--><g class="entity" data-entity="Submit" data-source-line="18" data-uid="ent0005" id="entity_Submit"><ellipse cx="494.0949" cy="136.997" fill="#F1F1F1" rx="94.1849" ry="21.237" style="stroke:#181818;stroke-width:0.5;"/><text fill="#000000" font-family="sans-serif" font-size="14" lengthAdjust="spacing" textLength="163.1533" x="412.5182" y="141.6454">Submit Ad for Approval</text></g><!--entity ConfirmProof--><g class="entity" data-entity="ConfirmProof" data-source-line="19" data-uid="ent0006" id="entity_ConfirmProof"><ellipse cx="494.0898" cy="64.004" fill="#F1F1F1" rx="97.3198" ry="21.864" style="stroke:#181818;stroke-width:0.5;"/><text fill="#000000" font-family="sans-serif" font-size="14" lengthAdjust="spacing" textLength="170.1328" x="409.0234" y="68.6524">Confirm Proof of Display</text></g><!--entity Pay--><g class="entity" data-entity="Pay" data-source-line="20" data-uid="ent0007" id="entity_Pay"><ellipse cx="209.4648" cy="60.001" fill="#F1F1F1" rx="78.3048" ry="18.061" style="stroke:#181818;stroke-width:0.5;"/><text fill="#000000" font-family="sans-serif" font-size="14" lengthAdjust="spacing" textLength="126.6631" x="146.1332" y="64.6494">Make Ad Payment</text></g><!--entity ApproveAd--><g class="entity" data-entity="ApproveAd" data-source-line="23" data-uid="ent0008" id="entity_ApproveAd"><ellipse cx="798.3781" cy="133.0036" fill="#F1F1F1" rx="76.6681" ry="17.7336" style="stroke:#181818;stroke-width:0.5;"/><text fill="#000000" font-family="sans-serif" font-size="14" lengthAdjust="spacing" textLength="122.7529" x="737.0017" y="137.6521">Approve/Deny Ad</text></g><!--entity PublishAd--><g class="entity" data-entity="PublishAd" data-source-line="24" data-uid="ent0009" id="entity_PublishAd"><ellipse cx="1087.9804" cy="99.0041" fill="#F1F1F1" rx="84.6204" ry="19.3241" style="stroke:#181818;stroke-width:0.5;"/><text fill="#000000" font-family="sans-serif" font-size="14" lengthAdjust="spacing" textLength="141.4492" x="1017.2558" y="103.6525">Publish Ad on Media</text></g><!--entity Proof--><g class="entity" data-entity="Proof" data-source-line="25" data-uid="ent0010" id="entity_Proof"><ellipse cx="798.3849" cy="64.005" fill="#F1F1F1" rx="95.9749" ry="21.595" style="stroke:#181818;stroke-width:0.5;"/><text fill="#000000" font-family="sans-serif" font-size="14" lengthAdjust="spacing" textLength="167.1455" x="714.8121" y="68.6534">Provide Proof of Display</text></g><!--entity ADV--><g class="entity" data-entity="ADV" data-source-line="11" data-uid="ent0002" id="entity_ADV"><ellipse cx="42.0801" cy="94.35" fill="#F1F1F1" rx="8" ry="8" style="stroke:#181818;stroke-width:0.5;"/><path d="M42.0801,102.35 L42.0801,129.35 M29.0801,110.35 L55.0801,110.35 M42.0801,129.35 L29.0801,144.35 M42.0801,129.35 L55.0801,144.35" fill="none" style="stroke:#181818;stroke-width:0.5;"/><text fill="#000000" font-family="sans-serif" font-size="14" lengthAdjust="spacing" textLength="72.1602" x="6" y="158.8451">Advertiser</text></g><!--entity MO--><g class="entity" data-entity="MO" data-source-line="12" data-uid="ent0003" id="entity_MO"><ellipse cx="1271.705" cy="134.35" fill="#F1F1F1" rx="8" ry="8" style="stroke:#181818;stroke-width:0.5;"/><path d="M1271.705,142.35 L1271.705,169.35 M1258.705,150.35 L1284.705,150.35 M1271.705,169.35 L1258.705,184.35 M1271.705,169.35 L1284.705,184.35" fill="none" style="stroke:#181818;stroke-width:0.5;"/><text fill="#000000" font-family="sans-serif" font-size="14" lengthAdjust="spacing" textLength="92.21" x="1225.6" y="198.8451">Media Owner</text></g><!--link ADV to Submit--><g class="link" data-entity-1="ADV" data-entity-2="Submit" data-source-line="28" data-uid="lnk11" id="link_ADV_Submit"><path d="M78.58,141.21 C84.96,143.61 91.66,145.7 98.16,147 C219.57,171.33 253.06,152.31 376.77,147 C386.49,146.58 396.65,145.97 406.75,145.25" fill="none" id="ADV-Submit" style="stroke:#181818;stroke-width:1;"/></g><!--link ADV to ConfirmProof--><g class="link" data-entity-1="ADV" data-entity-2="ConfirmProof" data-source-line="29" data-uid="lnk12" id="link_ADV_ConfirmProof"><path d="M78.35,119.69 C125.93,113.85 213.29,102.98 287.77,93 C328.45,87.55 373.61,81.21 411.2,75.84" fill="none" id="ADV-ConfirmProof" style="stroke:#181818;stroke-width:1;"/></g><!--link ADV to Pay--><g class="link" data-entity-1="ADV" data-entity-2="Pay" data-source-line="30" data-uid="lnk13" id="link_ADV_Pay"><path d="M78.55,108.95 C85.06,106.26 91.8,103.51 98.16,101 C120.4,92.23 145.35,82.91 165.89,75.38" fill="none" id="ADV-Pay" style="stroke:#181818;stroke-width:1;"/></g><!--link ApproveAd to MO--><g class="link" data-entity-1="ApproveAd" data-entity-2="MO" data-source-line="35" data-uid="lnk14" id="link_ApproveAd_MO"><path d="M826.5,149.93 C849.05,162.96 882.5,179.89 914.36,187 C1040.69,215.19 1078.02,208.87 1205.6,187 C1212.1,185.89 1218.81,184.19 1225.34,182.21" fill="none" id="ApproveAd-MO" style="stroke:#181818;stroke-width:1;"/></g><!--link Proof to MO--><g class="link" data-entity-1="Proof" data-entity-2="MO" data-source-line="36" data-uid="lnk15" id="link_Proof_MO"><path d="M860.66,80.8 C872.57,85.78 884.43,92.09 894.36,100 C906.89,109.98 900.61,121.78 914.36,130 C1012.5,188.69 1153.65,180.58 1225.29,171.37" fill="none" id="Proof-MO" style="stroke:#181818;stroke-width:1;"/></g><!--link PublishAd to MO--><g class="link" data-entity-1="PublishAd" data-entity-2="MO" data-source-line="37" data-uid="lnk16" id="link_PublishAd_MO"><path d="M1134.84,115.4 C1162.49,125.29 1197.58,137.85 1225.18,147.72" fill="none" id="PublishAd-MO" style="stroke:#181818;stroke-width:1;"/></g><!--reverse link Submit to ApproveAd--><g class="link" data-entity-1="Submit" data-entity-2="ApproveAd" data-source-line="40" data-uid="lnk17" id="link_Submit_ApproveAd"><path d="M594.2495,135.6902 C637.0995,135.1202 681.28,134.54 721.74,134" fill="none" id="Submit-backto-ApproveAd" style="stroke:#181818;stroke-width:1;stroke-dasharray:7,7;"/><polygon fill="#181818" points="588.25,135.77,597.3024,139.6499,593.2496,135.7035,597.196,131.6506,588.25,135.77" style="stroke:#181818;stroke-width:1;"/><text fill="#000000" font-family="sans-serif" font-size="13" lengthAdjust="spacing" textLength="67.958" x="613.41" y="131.0669">&#171;extends&#187;</text></g><!--reverse link ApproveAd to PublishAd--><g class="link" data-entity-1="ApproveAd" data-entity-2="PublishAd" data-source-line="41" data-uid="lnk18" id="link_ApproveAd_PublishAd"><path d="M876.6648,126.4105 C910.8048,123.2705 946.26,119.68 983.36,115 C994.56,113.59 1006.41,111.92 1017.94,110.21" fill="none" id="ApproveAd-backto-PublishAd" style="stroke:#181818;stroke-width:1;stroke-dasharray:7,7;"/><polygon fill="#181818" points="870.69,126.96,880.0185,130.1189,875.669,126.5021,879.2858,122.1525,870.69,126.96" style="stroke:#181818;stroke-width:1;"/><text fill="#000000" font-family="sans-serif" font-size="13" lengthAdjust="spacing" textLength="67.958" x="915.36" y="111.0669">&#171;extends&#187;</text></g><!--link ConfirmProof to Proof--><g class="link" data-entity-1="ConfirmProof" data-entity-2="Proof" data-source-line="42" data-uid="lnk19" id="link_ConfirmProof_Proof"><path d="M591.57,64 C626.9,64 660.85,64 696.08,64" fill="none" id="ConfirmProof-to-Proof" style="stroke:#181818;stroke-width:1;stroke-dasharray:7,7;"/><polygon fill="#181818" points="702.08,64,693.08,60,697.08,64,693.08,68,702.08,64" style="stroke:#181818;stroke-width:1;"/><text fill="#000000" font-family="sans-serif" font-size="13" lengthAdjust="spacing" textLength="69.7798" x="612.41" y="60.0669">&#171;includes&#187;</text></g><!--link Proof to PublishAd--><g class="link" data-entity-1="Proof" data-entity-2="PublishAd" data-source-line="43" data-uid="lnk20" id="link_Proof_PublishAd"><path d="M883.73,74.27 C924.5,79.23 967.064,84.4044 1006.464,89.2044" fill="none" id="Proof-to-PublishAd" style="stroke:#181818;stroke-width:1;stroke-dasharray:7,7;"/><polygon fill="#181818" points="1012.42,89.93,1003.9698,84.871,1007.4567,89.3253,1003.0023,92.8122,1012.42,89.93" style="stroke:#181818;stroke-width:1;"/><text fill="#000000" font-family="sans-serif" font-size="13" lengthAdjust="spacing" textLength="67.958" x="915.36" y="75.0669">&#171;extends&#187;</text></g><!--link Pay to ConfirmProof--><g class="link" data-entity-1="Pay" data-entity-2="ConfirmProof" data-source-line="44" data-uid="lnk21" id="link_Pay_ConfirmProof"><path d="M288.07,61.1 C321.57,61.57 355.1106,62.0452 390.4806,62.5452" fill="none" id="Pay-to-ConfirmProof" style="stroke:#181818;stroke-width:1;stroke-dasharray:7,7;"/><polygon fill="#181818" points="396.48,62.63,387.5374,58.5032,391.4805,62.5593,387.4244,66.5024,396.48,62.63" style="stroke:#181818;stroke-width:1;"/><text fill="#000000" font-family="sans-serif" font-size="13" lengthAdjust="spacing" textLength="67.958" x="308.77" y="58.0669">&#171;extends&#187;</text></g><!--SRC=[RLF1Zjem4BtdAqPSjfKsj59xgX0IAfSUqA9MwgNgOOW7Ok6C8zl0ech_lMF710CRvP2yUNupxsLYQ1iWM71wrmPGsb4JjEMgUeAwhk47DuxG4_WU6yqxG5RGuPuWj0GR-me6tOvS95T-hxb7XnquvBsd7hv-Ba2sYYBufGHZF-IT8VXN0QnHgTX5pW6iH5bpV7whAco2TR1GHt91Usc87XRBtncVh4XfX9SJavl4qkgbggghzcHzs1ZjMn6OIAF1Mo5s48UDsFJ91y1JH28W9nqTDPs43POXzKaTCYxaaVhhiEbqYCnjdBNldJsYIUoXL9A_MzvgrucEjLkGUwbzR_2SwBcOQkMXLKnUzDTuxeZ3C0YUgpHoz5Jay61gL1aceqzBudDA96OvO0jL4g-ftNaVy3kodDUAtZSqE1d7NAIlrbZcOTqyVF3MQ0L6C_cFUM3vll9qpIw_tuMJqJ66FScETIa7ct98cg3Pn-d6dP0ba2s1-a-hbIB-My-B31vhOxSB9_QKBOFiTtoxH9EHqV9FCfYijheNkyg6GEfPVWf0v-p9FmCQ4oC9AFEgImPvfsRJQT4wNjzWDgFNGApyV7upMEHUntXabld1T9gzPQBcnXpaFqtCWZBgtQj9xebnetfBUliF]--></g></svg>